<?xml version="1.0" encoding="UTF-8" standalone="no"?>
<!-- Created with Inkscape (http://www.inkscape.org/) -->

<svg
   xmlns:dc="http://purl.org/dc/elements/1.1/"
   xmlns:cc="http://creativecommons.org/ns#"
   xmlns:rdf="http://www.w3.org/1999/02/22-rdf-syntax-ns#"
   xmlns:svg="http://www.w3.org/2000/svg"
   xmlns="http://www.w3.org/2000/svg"
   xmlns:sodipodi="http://sodipodi.sourceforge.net/DTD/sodipodi-0.dtd"
   xmlns:inkscape="http://www.inkscape.org/namespaces/inkscape"
   width="512"
   height="512"
   viewBox="0 0 512 512"
   version="1.1"
   id="svg3728"
   inkscape:version="0.92.1 r15371"
   sodipodi:docname="cloud.svg">
  <defs
     id="defs3722" />
  <sodipodi:namedview
     id="base"
     pagecolor="#ffffff"
     bordercolor="#666666"
     borderopacity="1.0"
     inkscape:pageopacity="0.0"
     inkscape:pageshadow="2"
     inkscape:zoom="0.35"
     inkscape:cx="400"
     inkscape:cy="560"
     inkscape:document-units="px"
     inkscape:current-layer="layer1"
     showgrid="false"
     units="px"
     inkscape:window-width="915"
     inkscape:window-height="839"
     inkscape:window-x="846"
     inkscape:window-y="50"
     inkscape:window-maximized="0" />
  <metadata
     id="metadata3725">
    <rdf:RDF>
      <cc:Work
         rdf:about="">
        <dc:format>image/svg+xml</dc:format>
        <dc:type
           rdf:resource="http://purl.org/dc/dcmitype/StillImage" />
        <dc:title></dc:title>
      </cc:Work>
    </rdf:RDF>
  </metadata>
  <g
     inkscape:label="Layer 1"
     inkscape:groupmode="layer"
     id="layer1"
     transform="translate(0,-161.53336)">
    <g
       id="g3994"
       transform="matrix(0.36198896,0,0,0.36198896,2.664733,164.34928)" />
    <g
       id="g3996"
       transform="matrix(0.36198896,0,0,0.36198896,2.664733,164.34928)" />
    <g
       id="g3998"
       transform="matrix(0.36198896,0,0,0.36198896,2.664733,164.34928)" />
    <g
       id="g4000"
       transform="matrix(0.36198896,0,0,0.36198896,2.664733,164.34928)" />
    <g
       id="g4002"
       transform="matrix(0.36198896,0,0,0.36198896,2.664733,164.34928)" />
    <g
       id="g4004"
       transform="matrix(0.36198896,0,0,0.36198896,2.664733,164.34928)" />
    <g
       id="g4006"
       transform="matrix(0.36198896,0,0,0.36198896,2.664733,164.34928)" />
    <g
       id="g4008"
       transform="matrix(0.36198896,0,0,0.36198896,2.664733,164.34928)" />
    <g
       id="g4010"
       transform="matrix(0.36198896,0,0,0.36198896,2.664733,164.34928)" />
    <g
       id="g4012"
       transform="matrix(0.36198896,0,0,0.36198896,2.664733,164.34928)" />
    <g
       id="g4014"
       transform="matrix(0.36198896,0,0,0.36198896,2.664733,164.34928)" />
    <g
       id="g4016"
       transform="matrix(0.36198896,0,0,0.36198896,2.664733,164.34928)" />
    <g
       id="g4018"
       transform="matrix(0.36198896,0,0,0.36198896,2.664733,164.34928)" />
    <g
       id="g4020"
       transform="matrix(0.36198896,0,0,0.36198896,2.664733,164.34928)" />
    <g
       id="g4022"
       transform="matrix(0.36198896,0,0,0.36198896,2.664733,164.34928)" />
    <g
       transform="matrix(0.81837846,0,0,0.81837846,5.0494055,164.95519)"
       id="g4100">
      <g
         id="wb-cloudy">
        <path
           inkscape:connector-curvature="0"
           d="M 494.7,255 C 476.85,168.3 400.35,102 306,102 232.05,102 168.3,142.8 137.7,204 58.65,214.2 0,277.95 0,357 0,441.15 68.85,510 153,510 H 484.5 C 555.9,510 612,453.9 612,382.5 612,316.2 558.45,260.1 494.7,255 Z"
           id="path4097" />
      </g>
    </g>
    <g
       transform="matrix(0.21146903,0,0,0.21146903,2.1922626,164.00281)"
       id="g4102" />
    <g
       transform="matrix(0.21146903,0,0,0.21146903,2.1922626,164.00281)"
       id="g4104" />
    <g
       transform="matrix(0.21146903,0,0,0.21146903,2.1922626,164.00281)"
       id="g4106" />
    <g
       transform="matrix(0.21146903,0,0,0.21146903,2.1922626,164.00281)"
       id="g4108" />
    <g
       transform="matrix(0.21146903,0,0,0.21146903,2.1922626,164.00281)"
       id="g4110" />
    <g
       transform="matrix(0.21146903,0,0,0.21146903,2.1922626,164.00281)"
       id="g4112" />
    <g
       transform="matrix(0.21146903,0,0,0.21146903,2.1922626,164.00281)"
       id="g4114" />
    <g
       transform="matrix(0.21146903,0,0,0.21146903,2.1922626,164.00281)"
       id="g4116" />
    <g
       transform="matrix(0.21146903,0,0,0.21146903,2.1922626,164.00281)"
       id="g4118" />
    <g
       transform="matrix(0.21146903,0,0,0.21146903,2.1922626,164.00281)"
       id="g4120" />
    <g
       transform="matrix(0.21146903,0,0,0.21146903,2.1922626,164.00281)"
       id="g4122" />
    <g
       transform="matrix(0.21146903,0,0,0.21146903,2.1922626,164.00281)"
       id="g4124" />
    <g
       transform="matrix(0.21146903,0,0,0.21146903,2.1922626,164.00281)"
       id="g4126" />
    <g
       transform="matrix(0.21146903,0,0,0.21146903,2.1922626,164.00281)"
       id="g4128" />
    <g
       transform="matrix(0.21146903,0,0,0.21146903,2.1922626,164.00281)"
       id="g4130" />
  </g>
</svg>
