<?xml version="1.0" encoding="UTF-8" standalone="no"?>
<!-- Created with Inkscape (http://www.inkscape.org/) -->

<svg
   xmlns:dc="http://purl.org/dc/elements/1.1/"
   xmlns:cc="http://creativecommons.org/ns#"
   xmlns:rdf="http://www.w3.org/1999/02/22-rdf-syntax-ns#"
   xmlns:svg="http://www.w3.org/2000/svg"
   xmlns="http://www.w3.org/2000/svg"
   xmlns:sodipodi="http://sodipodi.sourceforge.net/DTD/sodipodi-0.dtd"
   xmlns:inkscape="http://www.inkscape.org/namespaces/inkscape"
   width="512"
   height="512"
   viewBox="0 0 512 512"
   version="1.1"
   id="svg3728"
   inkscape:version="0.92.1 r15371"
   sodipodi:docname="download.svg">
  <defs
     id="defs3722" />
  <sodipodi:namedview
     id="base"
     pagecolor="#ffffff"
     bordercolor="#666666"
     borderopacity="1.0"
     inkscape:pageopacity="0.0"
     inkscape:pageshadow="2"
     inkscape:zoom="0.35"
     inkscape:cx="400"
     inkscape:cy="560"
     inkscape:document-units="px"
     inkscape:current-layer="layer1"
     showgrid="false"
     units="px"
     inkscape:window-width="915"
     inkscape:window-height="839"
     inkscape:window-x="767"
     inkscape:window-y="58"
     inkscape:window-maximized="0" />
  <metadata
     id="metadata3725">
    <rdf:RDF>
      <cc:Work
         rdf:about="">
        <dc:format>image/svg+xml</dc:format>
        <dc:type
           rdf:resource="http://purl.org/dc/dcmitype/StillImage" />
        <dc:title></dc:title>
      </cc:Work>
    </rdf:RDF>
  </metadata>
  <g
     inkscape:label="Layer 1"
     inkscape:groupmode="layer"
     id="layer1"
     transform="translate(0,-161.53336)">
    <g
       id="g3994"
       transform="matrix(0.36198896,0,0,0.36198896,2.664733,164.34928)" />
    <g
       id="g3996"
       transform="matrix(0.36198896,0,0,0.36198896,2.664733,164.34928)" />
    <g
       id="g3998"
       transform="matrix(0.36198896,0,0,0.36198896,2.664733,164.34928)" />
    <g
       id="g4000"
       transform="matrix(0.36198896,0,0,0.36198896,2.664733,164.34928)" />
    <g
       id="g4002"
       transform="matrix(0.36198896,0,0,0.36198896,2.664733,164.34928)" />
    <g
       id="g4004"
       transform="matrix(0.36198896,0,0,0.36198896,2.664733,164.34928)" />
    <g
       id="g4006"
       transform="matrix(0.36198896,0,0,0.36198896,2.664733,164.34928)" />
    <g
       id="g4008"
       transform="matrix(0.36198896,0,0,0.36198896,2.664733,164.34928)" />
    <g
       id="g4010"
       transform="matrix(0.36198896,0,0,0.36198896,2.664733,164.34928)" />
    <g
       id="g4012"
       transform="matrix(0.36198896,0,0,0.36198896,2.664733,164.34928)" />
    <g
       id="g4014"
       transform="matrix(0.36198896,0,0,0.36198896,2.664733,164.34928)" />
    <g
       id="g4016"
       transform="matrix(0.36198896,0,0,0.36198896,2.664733,164.34928)" />
    <g
       id="g4018"
       transform="matrix(0.36198896,0,0,0.36198896,2.664733,164.34928)" />
    <g
       id="g4020"
       transform="matrix(0.36198896,0,0,0.36198896,2.664733,164.34928)" />
    <g
       id="g4022"
       transform="matrix(0.36198896,0,0,0.36198896,2.664733,164.34928)" />
    <g
       transform="matrix(1.1595119,0,0,1.1595119,10.408641,164.81231)"
       id="g4208">
      <g
         id="file-download">
        <path
           inkscape:connector-curvature="0"
           d="m 395.25,153 h -102 V 0 h -153 v 153 h -102 l 178.5,178.5 z m -357,229.5 v 51 h 357 v -51 z"
           id="path4205" />
      </g>
    </g>
    <g
       transform="matrix(0.30269858,0,0,0.30269858,3.1817503,164.81231)"
       id="g4210" />
    <g
       transform="matrix(0.30269858,0,0,0.30269858,3.1817503,164.81231)"
       id="g4212" />
    <g
       transform="matrix(0.30269858,0,0,0.30269858,3.1817503,164.81231)"
       id="g4214" />
    <g
       transform="matrix(0.30269858,0,0,0.30269858,3.1817503,164.81231)"
       id="g4216" />
    <g
       transform="matrix(0.30269858,0,0,0.30269858,3.1817503,164.81231)"
       id="g4218" />
    <g
       transform="matrix(0.30269858,0,0,0.30269858,3.1817503,164.81231)"
       id="g4220" />
    <g
       transform="matrix(0.30269858,0,0,0.30269858,3.1817503,164.81231)"
       id="g4222" />
    <g
       transform="matrix(0.30269858,0,0,0.30269858,3.1817503,164.81231)"
       id="g4224" />
    <g
       transform="matrix(0.30269858,0,0,0.30269858,3.1817503,164.81231)"
       id="g4226" />
    <g
       transform="matrix(0.30269858,0,0,0.30269858,3.1817503,164.81231)"
       id="g4228" />
    <g
       transform="matrix(0.30269858,0,0,0.30269858,3.1817503,164.81231)"
       id="g4230" />
    <g
       transform="matrix(0.30269858,0,0,0.30269858,3.1817503,164.81231)"
       id="g4232" />
    <g
       transform="matrix(0.30269858,0,0,0.30269858,3.1817503,164.81231)"
       id="g4234" />
    <g
       transform="matrix(0.30269858,0,0,0.30269858,3.1817503,164.81231)"
       id="g4236" />
    <g
       transform="matrix(0.30269858,0,0,0.30269858,3.1817503,164.81231)"
       id="g4238" />
  </g>
</svg>
