<?xml version="1.0" encoding="UTF-8" standalone="no"?>
<!-- Created with Inkscape (http://www.inkscape.org/) -->

<svg
   xmlns:dc="http://purl.org/dc/elements/1.1/"
   xmlns:cc="http://creativecommons.org/ns#"
   xmlns:rdf="http://www.w3.org/1999/02/22-rdf-syntax-ns#"
   xmlns:svg="http://www.w3.org/2000/svg"
   xmlns="http://www.w3.org/2000/svg"
   xmlns:sodipodi="http://sodipodi.sourceforge.net/DTD/sodipodi-0.dtd"
   xmlns:inkscape="http://www.inkscape.org/namespaces/inkscape"
   width="512"
   height="512"
   viewBox="0 0 512 512"
   version="1.1"
   id="svg3728"
   inkscape:version="0.92.1 r15371"
   sodipodi:docname="edit.svg">
  <defs
     id="defs3722" />
  <sodipodi:namedview
     id="base"
     pagecolor="#ffffff"
     bordercolor="#666666"
     borderopacity="1.0"
     inkscape:pageopacity="0.0"
     inkscape:pageshadow="2"
     inkscape:zoom="0.35"
     inkscape:cx="400"
     inkscape:cy="560"
     inkscape:document-units="px"
     inkscape:current-layer="layer1"
     showgrid="false"
     units="px"
     inkscape:window-width="915"
     inkscape:window-height="839"
     inkscape:window-x="788"
     inkscape:window-y="114"
     inkscape:window-maximized="0" />
  <metadata
     id="metadata3725">
    <rdf:RDF>
      <cc:Work
         rdf:about="">
        <dc:format>image/svg+xml</dc:format>
        <dc:type
           rdf:resource="http://purl.org/dc/dcmitype/StillImage" />
        <dc:title></dc:title>
      </cc:Work>
    </rdf:RDF>
  </metadata>
  <g
     inkscape:label="Layer 1"
     inkscape:groupmode="layer"
     id="layer1"
     transform="translate(0,-161.53336)">
    <g
       id="g3994"
       transform="matrix(0.36198896,0,0,0.36198896,2.664733,164.34928)" />
    <g
       id="g3996"
       transform="matrix(0.36198896,0,0,0.36198896,2.664733,164.34928)" />
    <g
       id="g3998"
       transform="matrix(0.36198896,0,0,0.36198896,2.664733,164.34928)" />
    <g
       id="g4000"
       transform="matrix(0.36198896,0,0,0.36198896,2.664733,164.34928)" />
    <g
       id="g4002"
       transform="matrix(0.36198896,0,0,0.36198896,2.664733,164.34928)" />
    <g
       id="g4004"
       transform="matrix(0.36198896,0,0,0.36198896,2.664733,164.34928)" />
    <g
       id="g4006"
       transform="matrix(0.36198896,0,0,0.36198896,2.664733,164.34928)" />
    <g
       id="g4008"
       transform="matrix(0.36198896,0,0,0.36198896,2.664733,164.34928)" />
    <g
       id="g4010"
       transform="matrix(0.36198896,0,0,0.36198896,2.664733,164.34928)" />
    <g
       id="g4012"
       transform="matrix(0.36198896,0,0,0.36198896,2.664733,164.34928)" />
    <g
       id="g4014"
       transform="matrix(0.36198896,0,0,0.36198896,2.664733,164.34928)" />
    <g
       id="g4016"
       transform="matrix(0.36198896,0,0,0.36198896,2.664733,164.34928)" />
    <g
       id="g4018"
       transform="matrix(0.36198896,0,0,0.36198896,2.664733,164.34928)" />
    <g
       id="g4020"
       transform="matrix(0.36198896,0,0,0.36198896,2.664733,164.34928)" />
    <g
       id="g4022"
       transform="matrix(0.36198896,0,0,0.36198896,2.664733,164.34928)" />
    <g
       transform="matrix(1.1122335,0,0,1.1122335,2.7781259,163.70771)"
       id="g4316">
      <g
         id="create">
        <path
           inkscape:connector-curvature="0"
           d="M 0,362.1 V 459 H 96.9 L 377.4,175.95 280.5,79.05 Z M 451.35,102 c 10.2,-10.2 10.2,-25.5 0,-35.7 L 392.7,7.649 c -10.2,-10.2 -25.5,-10.2 -35.7,0 l -45.9,45.9 96.9,96.9 z"
           id="path4313" />
      </g>
    </g>
    <g
       transform="matrix(0.28434675,0,0,0.28434675,2.7781259,163.70688)"
       id="g4318" />
    <g
       transform="matrix(0.28434675,0,0,0.28434675,2.7781259,163.70688)"
       id="g4320" />
    <g
       transform="matrix(0.28434675,0,0,0.28434675,2.7781259,163.70688)"
       id="g4322" />
    <g
       transform="matrix(0.28434675,0,0,0.28434675,2.7781259,163.70688)"
       id="g4324" />
    <g
       transform="matrix(0.28434675,0,0,0.28434675,2.7781259,163.70688)"
       id="g4326" />
    <g
       transform="matrix(0.28434675,0,0,0.28434675,2.7781259,163.70688)"
       id="g4328" />
    <g
       transform="matrix(0.28434675,0,0,0.28434675,2.7781259,163.70688)"
       id="g4330" />
    <g
       transform="matrix(0.28434675,0,0,0.28434675,2.7781259,163.70688)"
       id="g4332" />
    <g
       transform="matrix(0.28434675,0,0,0.28434675,2.7781259,163.70688)"
       id="g4334" />
    <g
       transform="matrix(0.28434675,0,0,0.28434675,2.7781259,163.70688)"
       id="g4336" />
    <g
       transform="matrix(0.28434675,0,0,0.28434675,2.7781259,163.70688)"
       id="g4338" />
    <g
       transform="matrix(0.28434675,0,0,0.28434675,2.7781259,163.70688)"
       id="g4340" />
    <g
       transform="matrix(0.28434675,0,0,0.28434675,2.7781259,163.70688)"
       id="g4342" />
    <g
       transform="matrix(0.28434675,0,0,0.28434675,2.7781259,163.70688)"
       id="g4344" />
    <g
       transform="matrix(0.28434675,0,0,0.28434675,2.7781259,163.70688)"
       id="g4346" />
  </g>
</svg>
