<?xml version="1.0" encoding="UTF-8" standalone="no"?>
<!-- Created with Inkscape (http://www.inkscape.org/) -->

<svg
   xmlns:dc="http://purl.org/dc/elements/1.1/"
   xmlns:cc="http://creativecommons.org/ns#"
   xmlns:rdf="http://www.w3.org/1999/02/22-rdf-syntax-ns#"
   xmlns:svg="http://www.w3.org/2000/svg"
   xmlns="http://www.w3.org/2000/svg"
   xmlns:sodipodi="http://sodipodi.sourceforge.net/DTD/sodipodi-0.dtd"
   xmlns:inkscape="http://www.inkscape.org/namespaces/inkscape"
   width="512"
   height="512"
   viewBox="0 0 512 512"
   version="1.1"
   id="svg3728"
   inkscape:version="0.92.1 r15371"
   sodipodi:docname="ellipsis.svg">
  <defs
     id="defs3722" />
  <sodipodi:namedview
     id="base"
     pagecolor="#ffffff"
     bordercolor="#666666"
     borderopacity="1.0"
     inkscape:pageopacity="0.0"
     inkscape:pageshadow="2"
     inkscape:zoom="0.35"
     inkscape:cx="400"
     inkscape:cy="560"
     inkscape:document-units="px"
     inkscape:current-layer="layer1"
     showgrid="false"
     units="px"
     inkscape:window-width="915"
     inkscape:window-height="839"
     inkscape:window-x="767"
     inkscape:window-y="58"
     inkscape:window-maximized="0" />
  <metadata
     id="metadata3725">
    <rdf:RDF>
      <cc:Work
         rdf:about="">
        <dc:format>image/svg+xml</dc:format>
        <dc:type
           rdf:resource="http://purl.org/dc/dcmitype/StillImage" />
        <dc:title></dc:title>
      </cc:Work>
    </rdf:RDF>
  </metadata>
  <g
     inkscape:label="Layer 1"
     inkscape:groupmode="layer"
     id="layer1"
     transform="translate(0,-161.53336)">
    <g
       id="g3994"
       transform="matrix(0.36198896,0,0,0.36198896,2.664733,164.34928)" />
    <g
       id="g3996"
       transform="matrix(0.36198896,0,0,0.36198896,2.664733,164.34928)" />
    <g
       id="g3998"
       transform="matrix(0.36198896,0,0,0.36198896,2.664733,164.34928)" />
    <g
       id="g4000"
       transform="matrix(0.36198896,0,0,0.36198896,2.664733,164.34928)" />
    <g
       id="g4002"
       transform="matrix(0.36198896,0,0,0.36198896,2.664733,164.34928)" />
    <g
       id="g4004"
       transform="matrix(0.36198896,0,0,0.36198896,2.664733,164.34928)" />
    <g
       id="g4006"
       transform="matrix(0.36198896,0,0,0.36198896,2.664733,164.34928)" />
    <g
       id="g4008"
       transform="matrix(0.36198896,0,0,0.36198896,2.664733,164.34928)" />
    <g
       id="g4010"
       transform="matrix(0.36198896,0,0,0.36198896,2.664733,164.34928)" />
    <g
       id="g4012"
       transform="matrix(0.36198896,0,0,0.36198896,2.664733,164.34928)" />
    <g
       id="g4014"
       transform="matrix(0.36198896,0,0,0.36198896,2.664733,164.34928)" />
    <g
       id="g4016"
       transform="matrix(0.36198896,0,0,0.36198896,2.664733,164.34928)" />
    <g
       id="g4018"
       transform="matrix(0.36198896,0,0,0.36198896,2.664733,164.34928)" />
    <g
       id="g4020"
       transform="matrix(0.36198896,0,0,0.36198896,2.664733,164.34928)" />
    <g
       id="g4022"
       transform="matrix(0.36198896,0,0,0.36198896,2.664733,164.34928)" />
    <g
       transform="matrix(1.2290879,0,0,1.2290879,6.9238102,162.29512)"
       id="g4424">
      <g
         id="keyboard-control">
        <path
           inkscape:connector-curvature="0"
           d="m 51,153 c -28.05,0 -51,22.95 -51,51 0,28.05 22.95,51 51,51 28.05,0 51,-22.95 51,-51 0,-28.05 -22.95,-51 -51,-51 z m 306,0 c -28.05,0 -51,22.95 -51,51 0,28.05 22.95,51 51,51 28.05,0 51,-22.95 51,-51 0,-28.05 -22.95,-51 -51,-51 z m -153,0 c -28.05,0 -51,22.95 -51,51 0,28.05 22.95,51 51,51 28.05,0 51,-22.95 51,-51 0,-28.05 -22.95,-51 -51,-51 z"
           id="path4421" />
      </g>
    </g>
    <g
       transform="matrix(0.32943218,0,0,0.32943218,0.45357213,157.50791)"
       id="g4426" />
    <g
       transform="matrix(0.32943218,0,0,0.32943218,0.45357213,157.50791)"
       id="g4428" />
    <g
       transform="matrix(0.32943218,0,0,0.32943218,0.45357213,157.50791)"
       id="g4430" />
    <g
       transform="matrix(0.32943218,0,0,0.32943218,0.45357213,157.50791)"
       id="g4432" />
    <g
       transform="matrix(0.32943218,0,0,0.32943218,0.45357213,157.50791)"
       id="g4434" />
    <g
       transform="matrix(0.32943218,0,0,0.32943218,0.45357213,157.50791)"
       id="g4436" />
    <g
       transform="matrix(0.32943218,0,0,0.32943218,0.45357213,157.50791)"
       id="g4438" />
    <g
       transform="matrix(0.32943218,0,0,0.32943218,0.45357213,157.50791)"
       id="g4440" />
    <g
       transform="matrix(0.32943218,0,0,0.32943218,0.45357213,157.50791)"
       id="g4442" />
    <g
       transform="matrix(0.32943218,0,0,0.32943218,0.45357213,157.50791)"
       id="g4444" />
    <g
       transform="matrix(0.32943218,0,0,0.32943218,0.45357213,157.50791)"
       id="g4446" />
    <g
       transform="matrix(0.32943218,0,0,0.32943218,0.45357213,157.50791)"
       id="g4448" />
    <g
       transform="matrix(0.32943218,0,0,0.32943218,0.45357213,157.50791)"
       id="g4450" />
    <g
       transform="matrix(0.32943218,0,0,0.32943218,0.45357213,157.50791)"
       id="g4452" />
    <g
       transform="matrix(0.32943218,0,0,0.32943218,0.45357213,157.50791)"
       id="g4454" />
  </g>
</svg>
