<?xml version="1.0" encoding="UTF-8" standalone="no"?>
<!-- Created with Inkscape (http://www.inkscape.org/) -->

<svg
   xmlns:dc="http://purl.org/dc/elements/1.1/"
   xmlns:cc="http://creativecommons.org/ns#"
   xmlns:rdf="http://www.w3.org/1999/02/22-rdf-syntax-ns#"
   xmlns:svg="http://www.w3.org/2000/svg"
   xmlns="http://www.w3.org/2000/svg"
   xmlns:sodipodi="http://sodipodi.sourceforge.net/DTD/sodipodi-0.dtd"
   xmlns:inkscape="http://www.inkscape.org/namespaces/inkscape"
   width="512"
   height="512"
   viewBox="0 0 512 512"
   version="1.1"
   id="svg3728"
   inkscape:version="0.92.1 r15371"
   sodipodi:docname="grid.svg">
  <defs
     id="defs3722" />
  <sodipodi:namedview
     id="base"
     pagecolor="#ffffff"
     bordercolor="#666666"
     borderopacity="1.0"
     inkscape:pageopacity="0.0"
     inkscape:pageshadow="2"
     inkscape:zoom="0.35"
     inkscape:cx="400"
     inkscape:cy="560"
     inkscape:document-units="px"
     inkscape:current-layer="layer1"
     showgrid="false"
     units="px"
     inkscape:window-width="915"
     inkscape:window-height="839"
     inkscape:window-x="767"
     inkscape:window-y="58"
     inkscape:window-maximized="0" />
  <metadata
     id="metadata3725">
    <rdf:RDF>
      <cc:Work
         rdf:about="">
        <dc:format>image/svg+xml</dc:format>
        <dc:type
           rdf:resource="http://purl.org/dc/dcmitype/StillImage" />
        <dc:title></dc:title>
      </cc:Work>
    </rdf:RDF>
  </metadata>
  <g
     inkscape:label="Layer 1"
     inkscape:groupmode="layer"
     id="layer1"
     transform="translate(0,-161.53336)">
    <g
       id="g3994"
       transform="matrix(0.36198896,0,0,0.36198896,2.664733,164.34928)" />
    <g
       id="g3996"
       transform="matrix(0.36198896,0,0,0.36198896,2.664733,164.34928)" />
    <g
       id="g3998"
       transform="matrix(0.36198896,0,0,0.36198896,2.664733,164.34928)" />
    <g
       id="g4000"
       transform="matrix(0.36198896,0,0,0.36198896,2.664733,164.34928)" />
    <g
       id="g4002"
       transform="matrix(0.36198896,0,0,0.36198896,2.664733,164.34928)" />
    <g
       id="g4004"
       transform="matrix(0.36198896,0,0,0.36198896,2.664733,164.34928)" />
    <g
       id="g4006"
       transform="matrix(0.36198896,0,0,0.36198896,2.664733,164.34928)" />
    <g
       id="g4008"
       transform="matrix(0.36198896,0,0,0.36198896,2.664733,164.34928)" />
    <g
       id="g4010"
       transform="matrix(0.36198896,0,0,0.36198896,2.664733,164.34928)" />
    <g
       id="g4012"
       transform="matrix(0.36198896,0,0,0.36198896,2.664733,164.34928)" />
    <g
       id="g4014"
       transform="matrix(0.36198896,0,0,0.36198896,2.664733,164.34928)" />
    <g
       id="g4016"
       transform="matrix(0.36198896,0,0,0.36198896,2.664733,164.34928)" />
    <g
       id="g4018"
       transform="matrix(0.36198896,0,0,0.36198896,2.664733,164.34928)" />
    <g
       id="g4020"
       transform="matrix(0.36198896,0,0,0.36198896,2.664733,164.34928)" />
    <g
       id="g4022"
       transform="matrix(0.36198896,0,0,0.36198896,2.664733,164.34928)" />
    <g
       transform="matrix(0.32943218,0,0,0.32943218,0.45357213,157.50791)"
       id="g4426" />
    <g
       transform="matrix(0.32943218,0,0,0.32943218,0.45357213,157.50791)"
       id="g4428" />
    <g
       transform="matrix(0.32943218,0,0,0.32943218,0.45357213,157.50791)"
       id="g4430" />
    <g
       transform="matrix(0.32943218,0,0,0.32943218,0.45357213,157.50791)"
       id="g4432" />
    <g
       transform="matrix(0.32943218,0,0,0.32943218,0.45357213,157.50791)"
       id="g4434" />
    <g
       transform="matrix(0.32943218,0,0,0.32943218,0.45357213,157.50791)"
       id="g4436" />
    <g
       transform="matrix(0.32943218,0,0,0.32943218,0.45357213,157.50791)"
       id="g4438" />
    <g
       transform="matrix(0.32943218,0,0,0.32943218,0.45357213,157.50791)"
       id="g4440" />
    <g
       transform="matrix(0.32943218,0,0,0.32943218,0.45357213,157.50791)"
       id="g4442" />
    <g
       transform="matrix(0.32943218,0,0,0.32943218,0.45357213,157.50791)"
       id="g4444" />
    <g
       transform="matrix(0.32943218,0,0,0.32943218,0.45357213,157.50791)"
       id="g4446" />
    <g
       transform="matrix(0.32943218,0,0,0.32943218,0.45357213,157.50791)"
       id="g4448" />
    <g
       transform="matrix(0.32943218,0,0,0.32943218,0.45357213,157.50791)"
       id="g4450" />
    <g
       transform="matrix(0.32943218,0,0,0.32943218,0.45357213,157.50791)"
       id="g4452" />
    <g
       transform="matrix(0.32943218,0,0,0.32943218,0.45357213,157.50791)"
       id="g4454" />
    <g
       id="g4748"
       transform="matrix(1.2412407,0,0,1.2412407,1.9654765,163.65002)">
      <g
         id="apps">
        <path
           inkscape:connector-curvature="0"
           d="M 0,102 H 102 V 0 H 0 Z M 153,408 H 255 V 306 H 153 Z M 0,408 H 102 V 306 H 0 Z M 0,255 H 102 V 153 H 0 Z m 153,0 H 255 V 153 H 153 Z M 306,0 V 102 H 408 V 0 Z M 153,102 H 255 V 0 H 153 Z M 306,255 H 408 V 153 H 306 Z m 0,153 H 408 V 306 H 306 Z"
           id="path4745" />
      </g>
    </g>
    <g
       id="g4750"
       transform="matrix(0.32387371,0,0,0.32387371,1.9654765,163.65002)" />
    <g
       id="g4752"
       transform="matrix(0.32387371,0,0,0.32387371,1.9654765,163.65002)" />
    <g
       id="g4754"
       transform="matrix(0.32387371,0,0,0.32387371,1.9654765,163.65002)" />
    <g
       id="g4756"
       transform="matrix(0.32387371,0,0,0.32387371,1.9654765,163.65002)" />
    <g
       id="g4758"
       transform="matrix(0.32387371,0,0,0.32387371,1.9654765,163.65002)" />
    <g
       id="g4760"
       transform="matrix(0.32387371,0,0,0.32387371,1.9654765,163.65002)" />
    <g
       id="g4762"
       transform="matrix(0.32387371,0,0,0.32387371,1.9654765,163.65002)" />
    <g
       id="g4764"
       transform="matrix(0.32387371,0,0,0.32387371,1.9654765,163.65002)" />
    <g
       id="g4766"
       transform="matrix(0.32387371,0,0,0.32387371,1.9654765,163.65002)" />
    <g
       id="g4768"
       transform="matrix(0.32387371,0,0,0.32387371,1.9654765,163.65002)" />
    <g
       id="g4770"
       transform="matrix(0.32387371,0,0,0.32387371,1.9654765,163.65002)" />
    <g
       id="g4772"
       transform="matrix(0.32387371,0,0,0.32387371,1.9654765,163.65002)" />
    <g
       id="g4774"
       transform="matrix(0.32387371,0,0,0.32387371,1.9654765,163.65002)" />
    <g
       id="g4776"
       transform="matrix(0.32387371,0,0,0.32387371,1.9654765,163.65002)" />
    <g
       id="g4778"
       transform="matrix(0.32387371,0,0,0.32387371,1.9654765,163.65002)" />
  </g>
</svg>
