<?xml version="1.0" encoding="UTF-8" standalone="no"?>
<!-- Created with Inkscape (http://www.inkscape.org/) -->

<svg
   xmlns:dc="http://purl.org/dc/elements/1.1/"
   xmlns:cc="http://creativecommons.org/ns#"
   xmlns:rdf="http://www.w3.org/1999/02/22-rdf-syntax-ns#"
   xmlns:svg="http://www.w3.org/2000/svg"
   xmlns="http://www.w3.org/2000/svg"
   xmlns:sodipodi="http://sodipodi.sourceforge.net/DTD/sodipodi-0.dtd"
   xmlns:inkscape="http://www.inkscape.org/namespaces/inkscape"
   width="512"
   height="512"
   viewBox="0 0 512 512"
   version="1.1"
   id="svg3728"
   inkscape:version="0.92.1 r15371"
   sodipodi:docname="headset.svg">
  <defs
     id="defs3722" />
  <sodipodi:namedview
     id="base"
     pagecolor="#ffffff"
     bordercolor="#666666"
     borderopacity="1.0"
     inkscape:pageopacity="0.0"
     inkscape:pageshadow="2"
     inkscape:zoom="0.35"
     inkscape:cx="400"
     inkscape:cy="560"
     inkscape:document-units="px"
     inkscape:current-layer="layer1"
     showgrid="false"
     units="px"
     inkscape:window-width="915"
     inkscape:window-height="839"
     inkscape:window-x="800"
     inkscape:window-y="95"
     inkscape:window-maximized="0" />
  <metadata
     id="metadata3725">
    <rdf:RDF>
      <cc:Work
         rdf:about="">
        <dc:format>image/svg+xml</dc:format>
        <dc:type
           rdf:resource="http://purl.org/dc/dcmitype/StillImage" />
        <dc:title></dc:title>
      </cc:Work>
    </rdf:RDF>
  </metadata>
  <g
     inkscape:label="Layer 1"
     inkscape:groupmode="layer"
     id="layer1"
     transform="translate(0,-161.53336)">
    <g
       id="g3994"
       transform="matrix(0.36198896,0,0,0.36198896,2.664733,164.34928)" />
    <g
       id="g3996"
       transform="matrix(0.36198896,0,0,0.36198896,2.664733,164.34928)" />
    <g
       id="g3998"
       transform="matrix(0.36198896,0,0,0.36198896,2.664733,164.34928)" />
    <g
       id="g4000"
       transform="matrix(0.36198896,0,0,0.36198896,2.664733,164.34928)" />
    <g
       id="g4002"
       transform="matrix(0.36198896,0,0,0.36198896,2.664733,164.34928)" />
    <g
       id="g4004"
       transform="matrix(0.36198896,0,0,0.36198896,2.664733,164.34928)" />
    <g
       id="g4006"
       transform="matrix(0.36198896,0,0,0.36198896,2.664733,164.34928)" />
    <g
       id="g4008"
       transform="matrix(0.36198896,0,0,0.36198896,2.664733,164.34928)" />
    <g
       id="g4010"
       transform="matrix(0.36198896,0,0,0.36198896,2.664733,164.34928)" />
    <g
       id="g4012"
       transform="matrix(0.36198896,0,0,0.36198896,2.664733,164.34928)" />
    <g
       id="g4014"
       transform="matrix(0.36198896,0,0,0.36198896,2.664733,164.34928)" />
    <g
       id="g4016"
       transform="matrix(0.36198896,0,0,0.36198896,2.664733,164.34928)" />
    <g
       id="g4018"
       transform="matrix(0.36198896,0,0,0.36198896,2.664733,164.34928)" />
    <g
       id="g4020"
       transform="matrix(0.36198896,0,0,0.36198896,2.664733,164.34928)" />
    <g
       id="g4022"
       transform="matrix(0.36198896,0,0,0.36198896,2.664733,164.34928)" />
    <g
       transform="matrix(0.32943218,0,0,0.32943218,0.45357213,157.50791)"
       id="g4426" />
    <g
       transform="matrix(0.32943218,0,0,0.32943218,0.45357213,157.50791)"
       id="g4428" />
    <g
       transform="matrix(0.32943218,0,0,0.32943218,0.45357213,157.50791)"
       id="g4430" />
    <g
       transform="matrix(0.32943218,0,0,0.32943218,0.45357213,157.50791)"
       id="g4432" />
    <g
       transform="matrix(0.32943218,0,0,0.32943218,0.45357213,157.50791)"
       id="g4434" />
    <g
       transform="matrix(0.32943218,0,0,0.32943218,0.45357213,157.50791)"
       id="g4436" />
    <g
       transform="matrix(0.32943218,0,0,0.32943218,0.45357213,157.50791)"
       id="g4438" />
    <g
       transform="matrix(0.32943218,0,0,0.32943218,0.45357213,157.50791)"
       id="g4440" />
    <g
       transform="matrix(0.32943218,0,0,0.32943218,0.45357213,157.50791)"
       id="g4442" />
    <g
       transform="matrix(0.32943218,0,0,0.32943218,0.45357213,157.50791)"
       id="g4444" />
    <g
       transform="matrix(0.32943218,0,0,0.32943218,0.45357213,157.50791)"
       id="g4446" />
    <g
       transform="matrix(0.32943218,0,0,0.32943218,0.45357213,157.50791)"
       id="g4448" />
    <g
       transform="matrix(0.32943218,0,0,0.32943218,0.45357213,157.50791)"
       id="g4450" />
    <g
       transform="matrix(0.32943218,0,0,0.32943218,0.45357213,157.50791)"
       id="g4452" />
    <g
       transform="matrix(0.32943218,0,0,0.32943218,0.45357213,157.50791)"
       id="g4454" />
    <g
       transform="matrix(1.0504737,0,0,1.0504737,0.97982457,164.11305)"
       id="g4856">
      <g
         id="headset">
        <path
           inkscape:connector-curvature="0"
           d="M 242.25,0 C 114.75,0 12.75,102 12.75,229.5 V 408 c 0,43.35 33.15,76.5 76.5,76.5 h 76.5 v -204 h -102 v -51 C 63.75,130.05 142.8,51 242.25,51 c 99.45,0 178.5,79.05 178.5,178.5 v 51 h -102 v 204 h 76.5 c 43.35,0 76.5,-33.15 76.5,-76.5 V 229.5 C 471.75,102 369.75,0 242.25,0 Z"
           id="path4853" />
      </g>
    </g>
    <g
       transform="matrix(0.2723847,0,0,0.2723847,2.3290309,164.11305)"
       id="g4858" />
    <g
       transform="matrix(0.2723847,0,0,0.2723847,2.3290309,164.11305)"
       id="g4860" />
    <g
       transform="matrix(0.2723847,0,0,0.2723847,2.3290309,164.11305)"
       id="g4862" />
    <g
       transform="matrix(0.2723847,0,0,0.2723847,2.3290309,164.11305)"
       id="g4864" />
    <g
       transform="matrix(0.2723847,0,0,0.2723847,2.3290309,164.11305)"
       id="g4866" />
    <g
       transform="matrix(0.2723847,0,0,0.2723847,2.3290309,164.11305)"
       id="g4868" />
    <g
       transform="matrix(0.2723847,0,0,0.2723847,2.3290309,164.11305)"
       id="g4870" />
    <g
       transform="matrix(0.2723847,0,0,0.2723847,2.3290309,164.11305)"
       id="g4872" />
    <g
       transform="matrix(0.2723847,0,0,0.2723847,2.3290309,164.11305)"
       id="g4874" />
    <g
       transform="matrix(0.2723847,0,0,0.2723847,2.3290309,164.11305)"
       id="g4876" />
    <g
       transform="matrix(0.2723847,0,0,0.2723847,2.3290309,164.11305)"
       id="g4878" />
    <g
       transform="matrix(0.2723847,0,0,0.2723847,2.3290309,164.11305)"
       id="g4880" />
    <g
       transform="matrix(0.2723847,0,0,0.2723847,2.3290309,164.11305)"
       id="g4882" />
    <g
       transform="matrix(0.2723847,0,0,0.2723847,2.3290309,164.11305)"
       id="g4884" />
    <g
       transform="matrix(0.2723847,0,0,0.2723847,2.3290309,164.11305)"
       id="g4886" />
  </g>
</svg>
