<?xml version="1.0" encoding="iso-8859-1"?>
<!-- Generator: Adobe Illustrator 18.0.0, SVG Export Plug-In . SVG Version: 6.00 Build 0)  -->
<!DOCTYPE svg PUBLIC "-//W3C//DTD SVG 1.1//EN" "http://www.w3.org/Graphics/SVG/1.1/DTD/svg11.dtd">
<svg version="1.1" id="Capa_1" xmlns="http://www.w3.org/2000/svg" xmlns:xlink="http://www.w3.org/1999/xlink" x="0px" y="0px"
	 viewBox="0 0 512 512" style="enable-background:new 0 0 512 512;" xml:space="preserve">
<path d="M475.763,6.921c-7.668-6.086-17.641-8.312-27.149-6.062L177.046,64.857c-14.457,3.398-24.242,16.297-24.242,31.148v229.577
	c-11-3.549-21.168-5.58-32.406-5.58c-53.019,0-96.202,42.98-96.202,95.999S66.981,512,120,512s95.804-42.98,95.804-95.999V233.347
	l208-48.941v109.176c-10-3.549-20.669-5.58-31.908-5.58c-53.019,0-95.953,42.98-95.953,95.999S338.855,480,391.874,480
	s95.93-42.98,95.93-95.999V32.006C487.804,22.233,483.427,12.991,475.763,6.921z M215.804,167.602v-46.253l208-48.937v46.249
	L215.804,167.602z"/>
<g>
</g>
<g>
</g>
<g>
</g>
<g>
</g>
<g>
</g>
<g>
</g>
<g>
</g>
<g>
</g>
<g>
</g>
<g>
</g>
<g>
</g>
<g>
</g>
<g>
</g>
<g>
</g>
<g>
</g>
</svg>
