<?xml version="1.0" encoding="UTF-8" standalone="no"?>
<!-- Created with Inkscape (http://www.inkscape.org/) -->

<svg
   xmlns:dc="http://purl.org/dc/elements/1.1/"
   xmlns:cc="http://creativecommons.org/ns#"
   xmlns:rdf="http://www.w3.org/1999/02/22-rdf-syntax-ns#"
   xmlns:svg="http://www.w3.org/2000/svg"
   xmlns="http://www.w3.org/2000/svg"
   xmlns:sodipodi="http://sodipodi.sourceforge.net/DTD/sodipodi-0.dtd"
   xmlns:inkscape="http://www.inkscape.org/namespaces/inkscape"
   width="512"
   height="512"
   viewBox="0 0 512 512"
   version="1.1"
   id="svg3728"
   inkscape:version="0.92.1 r15371"
   sodipodi:docname="volume.svg">
  <defs
     id="defs3722" />
  <sodipodi:namedview
     id="base"
     pagecolor="#ffffff"
     bordercolor="#666666"
     borderopacity="1.0"
     inkscape:pageopacity="0.0"
     inkscape:pageshadow="2"
     inkscape:zoom="0.35"
     inkscape:cx="400"
     inkscape:cy="560"
     inkscape:document-units="px"
     inkscape:current-layer="layer1"
     showgrid="false"
     units="px"
     inkscape:window-width="915"
     inkscape:window-height="839"
     inkscape:window-x="814"
     inkscape:window-y="112"
     inkscape:window-maximized="0" />
  <metadata
     id="metadata3725">
    <rdf:RDF>
      <cc:Work
         rdf:about="">
        <dc:format>image/svg+xml</dc:format>
        <dc:type
           rdf:resource="http://purl.org/dc/dcmitype/StillImage" />
        <dc:title></dc:title>
      </cc:Work>
    </rdf:RDF>
  </metadata>
  <g
     inkscape:label="Layer 1"
     inkscape:groupmode="layer"
     id="layer1"
     transform="translate(0,-161.53336)">
    <g
       id="g3994"
       transform="matrix(0.36198896,0,0,0.36198896,2.664733,164.34928)" />
    <g
       id="g3996"
       transform="matrix(0.36198896,0,0,0.36198896,2.664733,164.34928)" />
    <g
       id="g3998"
       transform="matrix(0.36198896,0,0,0.36198896,2.664733,164.34928)" />
    <g
       id="g4000"
       transform="matrix(0.36198896,0,0,0.36198896,2.664733,164.34928)" />
    <g
       id="g4002"
       transform="matrix(0.36198896,0,0,0.36198896,2.664733,164.34928)" />
    <g
       id="g4004"
       transform="matrix(0.36198896,0,0,0.36198896,2.664733,164.34928)" />
    <g
       id="g4006"
       transform="matrix(0.36198896,0,0,0.36198896,2.664733,164.34928)" />
    <g
       id="g4008"
       transform="matrix(0.36198896,0,0,0.36198896,2.664733,164.34928)" />
    <g
       id="g4010"
       transform="matrix(0.36198896,0,0,0.36198896,2.664733,164.34928)" />
    <g
       id="g4012"
       transform="matrix(0.36198896,0,0,0.36198896,2.664733,164.34928)" />
    <g
       id="g4014"
       transform="matrix(0.36198896,0,0,0.36198896,2.664733,164.34928)" />
    <g
       id="g4016"
       transform="matrix(0.36198896,0,0,0.36198896,2.664733,164.34928)" />
    <g
       id="g4018"
       transform="matrix(0.36198896,0,0,0.36198896,2.664733,164.34928)" />
    <g
       id="g4020"
       transform="matrix(0.36198896,0,0,0.36198896,2.664733,164.34928)" />
    <g
       id="g4022"
       transform="matrix(0.36198896,0,0,0.36198896,2.664733,164.34928)" />
    <g
       transform="matrix(0.32943218,0,0,0.32943218,0.45357213,157.50791)"
       id="g4426" />
    <g
       transform="matrix(0.32943218,0,0,0.32943218,0.45357213,157.50791)"
       id="g4428" />
    <g
       transform="matrix(0.32943218,0,0,0.32943218,0.45357213,157.50791)"
       id="g4430" />
    <g
       transform="matrix(0.32943218,0,0,0.32943218,0.45357213,157.50791)"
       id="g4432" />
    <g
       transform="matrix(0.32943218,0,0,0.32943218,0.45357213,157.50791)"
       id="g4434" />
    <g
       transform="matrix(0.32943218,0,0,0.32943218,0.45357213,157.50791)"
       id="g4436" />
    <g
       transform="matrix(0.32943218,0,0,0.32943218,0.45357213,157.50791)"
       id="g4438" />
    <g
       transform="matrix(0.32943218,0,0,0.32943218,0.45357213,157.50791)"
       id="g4440" />
    <g
       transform="matrix(0.32943218,0,0,0.32943218,0.45357213,157.50791)"
       id="g4442" />
    <g
       transform="matrix(0.32943218,0,0,0.32943218,0.45357213,157.50791)"
       id="g4444" />
    <g
       transform="matrix(0.32943218,0,0,0.32943218,0.45357213,157.50791)"
       id="g4446" />
    <g
       transform="matrix(0.32943218,0,0,0.32943218,0.45357213,157.50791)"
       id="g4448" />
    <g
       transform="matrix(0.32943218,0,0,0.32943218,0.45357213,157.50791)"
       id="g4450" />
    <g
       transform="matrix(0.32943218,0,0,0.32943218,0.45357213,157.50791)"
       id="g4452" />
    <g
       transform="matrix(0.32943218,0,0,0.32943218,0.45357213,157.50791)"
       id="g4454" />
    <g
       transform="matrix(0.43998405,0,0,0.43998405,2.1481653,162.02473)"
       id="g5074" />
    <g
       transform="matrix(0.43998405,0,0,0.43998405,2.1481653,162.02473)"
       id="g5076" />
    <g
       transform="matrix(0.43998405,0,0,0.43998405,2.1481653,162.02473)"
       id="g5078" />
    <g
       transform="matrix(0.43998405,0,0,0.43998405,2.1481653,162.02473)"
       id="g5080" />
    <g
       transform="matrix(0.43998405,0,0,0.43998405,2.1481653,162.02473)"
       id="g5082" />
    <g
       transform="matrix(0.43998405,0,0,0.43998405,2.1481653,162.02473)"
       id="g5084" />
    <g
       transform="matrix(0.43998405,0,0,0.43998405,2.1481653,162.02473)"
       id="g5086" />
    <g
       transform="matrix(0.43998405,0,0,0.43998405,2.1481653,162.02473)"
       id="g5088" />
    <g
       transform="matrix(0.43998405,0,0,0.43998405,2.1481653,162.02473)"
       id="g5090" />
    <g
       transform="matrix(0.43998405,0,0,0.43998405,2.1481653,162.02473)"
       id="g5092" />
    <g
       transform="matrix(0.43998405,0,0,0.43998405,2.1481653,162.02473)"
       id="g5094" />
    <g
       transform="matrix(0.43998405,0,0,0.43998405,2.1481653,162.02473)"
       id="g5096" />
    <g
       transform="matrix(0.43998405,0,0,0.43998405,2.1481653,162.02473)"
       id="g5098" />
    <g
       transform="matrix(0.43998405,0,0,0.43998405,2.1481653,162.02473)"
       id="g5100" />
    <g
       transform="matrix(0.43998405,0,0,0.43998405,2.1481653,162.02473)"
       id="g5102" />
    <g
       transform="matrix(0.23628565,0,0,0.23628565,2.7884347,163.82011)"
       id="g5316" />
    <g
       transform="matrix(0.23628565,0,0,0.23628565,2.7884347,163.82011)"
       id="g5318" />
    <g
       transform="matrix(0.23628565,0,0,0.23628565,2.7884347,163.82011)"
       id="g5320" />
    <g
       transform="matrix(0.23628565,0,0,0.23628565,2.7884347,163.82011)"
       id="g5322" />
    <g
       transform="matrix(0.23628565,0,0,0.23628565,2.7884347,163.82011)"
       id="g5324" />
    <g
       transform="matrix(0.23628565,0,0,0.23628565,2.7884347,163.82011)"
       id="g5326" />
    <g
       transform="matrix(0.23628565,0,0,0.23628565,2.7884347,163.82011)"
       id="g5328" />
    <g
       transform="matrix(0.23628565,0,0,0.23628565,2.7884347,163.82011)"
       id="g5330" />
    <g
       transform="matrix(0.23628565,0,0,0.23628565,2.7884347,163.82011)"
       id="g5332" />
    <g
       transform="matrix(0.23628565,0,0,0.23628565,2.7884347,163.82011)"
       id="g5334" />
    <g
       transform="matrix(0.23628565,0,0,0.23628565,2.7884347,163.82011)"
       id="g5336" />
    <g
       transform="matrix(0.23628565,0,0,0.23628565,2.7884347,163.82011)"
       id="g5338" />
    <g
       transform="matrix(0.23628565,0,0,0.23628565,2.7884347,163.82011)"
       id="g5340" />
    <g
       transform="matrix(0.23628565,0,0,0.23628565,2.7884347,163.82011)"
       id="g5342" />
    <g
       transform="matrix(0.23628565,0,0,0.23628565,2.7884347,163.82011)"
       id="g5344" />
    <g
       transform="matrix(1.1047249,0,0,1.1047249,2.0221735,158.66605)"
       id="g6524">
      <g
         id="volume-up">
        <path
           inkscape:connector-curvature="0"
           d="M 0,153 V 306 H 102 L 229.5,433.5 V 25.5 L 102,153 Z m 344.25,76.5 c 0,-45.9 -25.5,-84.15 -63.75,-102 v 204 c 38.25,-17.85 63.75,-56.1 63.75,-102 z M 280.5,5.1 V 58.65 C 354.45,81.6 408,147.899 408,229.5 408,311.101 354.45,377.4 280.5,400.35 V 453.9 C 382.5,430.949 459,339.15 459,229.5 459,119.85 382.5,28.049 280.5,5.1 Z"
           id="path6521" />
      </g>
    </g>
    <g
       transform="matrix(0.28928766,0,0,0.28928766,2.0221735,162.82478)"
       id="g6526" />
    <g
       transform="matrix(0.28928766,0,0,0.28928766,2.0221735,162.82478)"
       id="g6528" />
    <g
       transform="matrix(0.28928766,0,0,0.28928766,2.0221735,162.82478)"
       id="g6530" />
    <g
       transform="matrix(0.28928766,0,0,0.28928766,2.0221735,162.82478)"
       id="g6532" />
    <g
       transform="matrix(0.28928766,0,0,0.28928766,2.0221735,162.82478)"
       id="g6534" />
    <g
       transform="matrix(0.28928766,0,0,0.28928766,2.0221735,162.82478)"
       id="g6536" />
    <g
       transform="matrix(0.28928766,0,0,0.28928766,2.0221735,162.82478)"
       id="g6538" />
    <g
       transform="matrix(0.28928766,0,0,0.28928766,2.0221735,162.82478)"
       id="g6540" />
    <g
       transform="matrix(0.28928766,0,0,0.28928766,2.0221735,162.82478)"
       id="g6542" />
    <g
       transform="matrix(0.28928766,0,0,0.28928766,2.0221735,162.82478)"
       id="g6544" />
    <g
       transform="matrix(0.28928766,0,0,0.28928766,2.0221735,162.82478)"
       id="g6546" />
    <g
       transform="matrix(0.28928766,0,0,0.28928766,2.0221735,162.82478)"
       id="g6548" />
    <g
       transform="matrix(0.28928766,0,0,0.28928766,2.0221735,162.82478)"
       id="g6550" />
    <g
       transform="matrix(0.28928766,0,0,0.28928766,2.0221735,162.82478)"
       id="g6552" />
    <g
       transform="matrix(0.28928766,0,0,0.28928766,2.0221735,162.82478)"
       id="g6554" />
  </g>
</svg>
