<?xml version="1.0" encoding="UTF-8" standalone="no"?>
<!-- Created with Inkscape (http://www.inkscape.org/) -->

<svg
   xmlns:dc="http://purl.org/dc/elements/1.1/"
   xmlns:cc="http://creativecommons.org/ns#"
   xmlns:rdf="http://www.w3.org/1999/02/22-rdf-syntax-ns#"
   xmlns:svg="http://www.w3.org/2000/svg"
   xmlns="http://www.w3.org/2000/svg"
   xmlns:sodipodi="http://sodipodi.sourceforge.net/DTD/sodipodi-0.dtd"
   xmlns:inkscape="http://www.inkscape.org/namespaces/inkscape"
   width="32"
   height="32"
   viewBox="0 0 512 512"
   version="1.1"
   id="svg3728"
   inkscape:version="0.92.1 r15371"
   sodipodi:docname="eye.svg">
  <defs
     id="defs3722" />
  <sodipodi:namedview
     id="base"
     pagecolor="#ffffff"
     bordercolor="#666666"
     borderopacity="1.0"
     inkscape:pageopacity="0.0"
     inkscape:pageshadow="2"
     inkscape:zoom="0.35"
     inkscape:cx="400"
     inkscape:cy="560"
     inkscape:document-units="px"
     inkscape:current-layer="layer1"
     showgrid="false"
     units="px"
     inkscape:window-width="915"
     inkscape:window-height="839"
     inkscape:window-x="784"
     inkscape:window-y="32"
     inkscape:window-maximized="0" />
  <metadata
     id="metadata3725">
    <rdf:RDF>
      <cc:Work
         rdf:about="">
        <dc:format>image/svg+xml</dc:format>
        <dc:type
           rdf:resource="http://purl.org/dc/dcmitype/StillImage" />
        <dc:title></dc:title>
      </cc:Work>
    </rdf:RDF>
  </metadata>
  <g
     inkscape:label="Layer 1"
     inkscape:groupmode="layer"
     id="layer1"
     transform="translate(0,-161.53336)">
    <g
       id="g3994"
       transform="matrix(0.36198896,0,0,0.36198896,2.664733,164.34928)" />
    <g
       id="g3996"
       transform="matrix(0.36198896,0,0,0.36198896,2.664733,164.34928)" />
    <g
       id="g3998"
       transform="matrix(0.36198896,0,0,0.36198896,2.664733,164.34928)" />
    <g
       id="g4000"
       transform="matrix(0.36198896,0,0,0.36198896,2.664733,164.34928)" />
    <g
       id="g4002"
       transform="matrix(0.36198896,0,0,0.36198896,2.664733,164.34928)" />
    <g
       id="g4004"
       transform="matrix(0.36198896,0,0,0.36198896,2.664733,164.34928)" />
    <g
       id="g4006"
       transform="matrix(0.36198896,0,0,0.36198896,2.664733,164.34928)" />
    <g
       id="g4008"
       transform="matrix(0.36198896,0,0,0.36198896,2.664733,164.34928)" />
    <g
       id="g4010"
       transform="matrix(0.36198896,0,0,0.36198896,2.664733,164.34928)" />
    <g
       id="g4012"
       transform="matrix(0.36198896,0,0,0.36198896,2.664733,164.34928)" />
    <g
       id="g4014"
       transform="matrix(0.36198896,0,0,0.36198896,2.664733,164.34928)" />
    <g
       id="g4016"
       transform="matrix(0.36198896,0,0,0.36198896,2.664733,164.34928)" />
    <g
       id="g4018"
       transform="matrix(0.36198896,0,0,0.36198896,2.664733,164.34928)" />
    <g
       id="g4020"
       transform="matrix(0.36198896,0,0,0.36198896,2.664733,164.34928)" />
    <g
       id="g4022"
       transform="matrix(0.36198896,0,0,0.36198896,2.664733,164.34928)" />
    <g
       transform="matrix(0.32943218,0,0,0.32943218,0.45357213,157.50791)"
       id="g4426" />
    <g
       transform="matrix(0.32943218,0,0,0.32943218,0.45357213,157.50791)"
       id="g4428" />
    <g
       transform="matrix(0.32943218,0,0,0.32943218,0.45357213,157.50791)"
       id="g4430" />
    <g
       transform="matrix(0.32943218,0,0,0.32943218,0.45357213,157.50791)"
       id="g4432" />
    <g
       transform="matrix(0.32943218,0,0,0.32943218,0.45357213,157.50791)"
       id="g4434" />
    <g
       transform="matrix(0.32943218,0,0,0.32943218,0.45357213,157.50791)"
       id="g4436" />
    <g
       transform="matrix(0.32943218,0,0,0.32943218,0.45357213,157.50791)"
       id="g4438" />
    <g
       transform="matrix(0.32943218,0,0,0.32943218,0.45357213,157.50791)"
       id="g4440" />
    <g
       transform="matrix(0.32943218,0,0,0.32943218,0.45357213,157.50791)"
       id="g4442" />
    <g
       transform="matrix(0.32943218,0,0,0.32943218,0.45357213,157.50791)"
       id="g4444" />
    <g
       transform="matrix(0.32943218,0,0,0.32943218,0.45357213,157.50791)"
       id="g4446" />
    <g
       transform="matrix(0.32943218,0,0,0.32943218,0.45357213,157.50791)"
       id="g4448" />
    <g
       transform="matrix(0.32943218,0,0,0.32943218,0.45357213,157.50791)"
       id="g4450" />
    <g
       transform="matrix(0.32943218,0,0,0.32943218,0.45357213,157.50791)"
       id="g4452" />
    <g
       transform="matrix(0.32943218,0,0,0.32943218,0.45357213,157.50791)"
       id="g4454" />
    <g
       transform="matrix(0.89567365,0,0,0.89567365,2.1355664,163.88221)"
       id="g4532">
      <g
         id="visibility">
        <path
           style="fill:#313131;"
           inkscape:connector-curvature="0"
           d="M 280.5,89.25 C 153,89.25 43.35,168.3 0,280.5 43.35,392.7 153,471.75 280.5,471.75 408,471.75 517.65,392.7 561,280.5 517.65,168.3 408,89.25 280.5,89.25 Z m 0,318.75 C 209.1,408 153,351.9 153,280.5 153,209.1 209.1,153 280.5,153 351.9,153 408,209.1 408,280.5 408,351.9 351.9,408 280.5,408 Z m 0,-204 c -43.35,0 -76.5,33.15 -76.5,76.5 0,43.35 33.15,76.5 76.5,76.5 43.35,0 76.5,-33.15 76.5,-76.5 0,-43.35 -33.15,-76.5 -76.5,-76.5 z"
           id="path4529" />
      </g>
    </g>
    <g
       transform="matrix(0.23359063,0,0,0.23359063,2.1355664,165.83026)"
       id="g4534" />
    <g
       transform="matrix(0.23359063,0,0,0.23359063,2.1355664,165.83026)"
       id="g4536" />
    <g
       transform="matrix(0.23359063,0,0,0.23359063,2.1355664,165.83026)"
       id="g4538" />
    <g
       transform="matrix(0.23359063,0,0,0.23359063,2.1355664,165.83026)"
       id="g4540" />
    <g
       transform="matrix(0.23359063,0,0,0.23359063,2.1355664,165.83026)"
       id="g4542" />
    <g
       transform="matrix(0.23359063,0,0,0.23359063,2.1355664,165.83026)"
       id="g4544" />
    <g
       transform="matrix(0.23359063,0,0,0.23359063,2.1355664,165.83026)"
       id="g4546" />
    <g
       transform="matrix(0.23359063,0,0,0.23359063,2.1355664,165.83026)"
       id="g4548" />
    <g
       transform="matrix(0.23359063,0,0,0.23359063,2.1355664,165.83026)"
       id="g4550" />
    <g
       transform="matrix(0.23359063,0,0,0.23359063,2.1355664,165.83026)"
       id="g4552" />
    <g
       transform="matrix(0.23359063,0,0,0.23359063,2.1355664,165.83026)"
       id="g4554" />
    <g
       transform="matrix(0.23359063,0,0,0.23359063,2.1355664,165.83026)"
       id="g4556" />
    <g
       transform="matrix(0.23359063,0,0,0.23359063,2.1355664,165.83026)"
       id="g4558" />
    <g
       transform="matrix(0.23359063,0,0,0.23359063,2.1355664,165.83026)"
       id="g4560" />
    <g
       transform="matrix(0.23359063,0,0,0.23359063,2.1355664,165.83026)"
       id="g4562" />
  </g>
</svg>
