<?xml version="1.0" encoding="UTF-8" standalone="no"?>
<!-- Created with Inkscape (http://www.inkscape.org/) -->

<svg
   xmlns:dc="http://purl.org/dc/elements/1.1/"
   xmlns:cc="http://creativecommons.org/ns#"
   xmlns:rdf="http://www.w3.org/1999/02/22-rdf-syntax-ns#"
   xmlns:svg="http://www.w3.org/2000/svg"
   xmlns="http://www.w3.org/2000/svg"
   xmlns:sodipodi="http://sodipodi.sourceforge.net/DTD/sodipodi-0.dtd"
   xmlns:inkscape="http://www.inkscape.org/namespaces/inkscape"
   width="32"
   height="32"
   viewBox="0 0 512 512"
   version="1.1"
   id="svg3728"
   inkscape:version="0.92.1 r15371"
   sodipodi:docname="left.svg">
  <defs
     id="defs3722" />
  <sodipodi:namedview
     id="base"
     pagecolor="#ffffff"
     bordercolor="#666666"
     borderopacity="1.0"
     inkscape:pageopacity="0.0"
     inkscape:pageshadow="2"
     inkscape:zoom="0.35"
     inkscape:cx="400"
     inkscape:cy="560"
     inkscape:document-units="px"
     inkscape:current-layer="layer1"
     showgrid="false"
     units="px"
     inkscape:window-width="915"
     inkscape:window-height="839"
     inkscape:window-x="767"
     inkscape:window-y="58"
     inkscape:window-maximized="1" />
  <metadata
     id="metadata3725">
    <rdf:RDF>
      <cc:Work
         rdf:about="">
        <dc:format>image/svg+xml</dc:format>
        <dc:type
           rdf:resource="http://purl.org/dc/dcmitype/StillImage" />
        <dc:title></dc:title>
      </cc:Work>
    </rdf:RDF>
  </metadata>
  <g
     inkscape:label="Layer 1"
     inkscape:groupmode="layer"
     id="layer1"
     transform="translate(0,-161.53336)">
    <g
       id="g3994"
       transform="matrix(0.36198896,0,0,0.36198896,2.664733,164.34928)" />
    <g
       id="g3996"
       transform="matrix(0.36198896,0,0,0.36198896,2.664733,164.34928)" />
    <g
       id="g3998"
       transform="matrix(0.36198896,0,0,0.36198896,2.664733,164.34928)" />
    <g
       id="g4000"
       transform="matrix(0.36198896,0,0,0.36198896,2.664733,164.34928)" />
    <g
       id="g4002"
       transform="matrix(0.36198896,0,0,0.36198896,2.664733,164.34928)" />
    <g
       id="g4004"
       transform="matrix(0.36198896,0,0,0.36198896,2.664733,164.34928)" />
    <g
       id="g4006"
       transform="matrix(0.36198896,0,0,0.36198896,2.664733,164.34928)" />
    <g
       id="g4008"
       transform="matrix(0.36198896,0,0,0.36198896,2.664733,164.34928)" />
    <g
       id="g4010"
       transform="matrix(0.36198896,0,0,0.36198896,2.664733,164.34928)" />
    <g
       id="g4012"
       transform="matrix(0.36198896,0,0,0.36198896,2.664733,164.34928)" />
    <g
       id="g4014"
       transform="matrix(0.36198896,0,0,0.36198896,2.664733,164.34928)" />
    <g
       id="g4016"
       transform="matrix(0.36198896,0,0,0.36198896,2.664733,164.34928)" />
    <g
       id="g4018"
       transform="matrix(0.36198896,0,0,0.36198896,2.664733,164.34928)" />
    <g
       id="g4020"
       transform="matrix(0.36198896,0,0,0.36198896,2.664733,164.34928)" />
    <g
       id="g4022"
       transform="matrix(0.36198896,0,0,0.36198896,2.664733,164.34928)" />
    <g
       transform="matrix(0.32943218,0,0,0.32943218,0.45357213,157.50791)"
       id="g4426" />
    <g
       transform="matrix(0.32943218,0,0,0.32943218,0.45357213,157.50791)"
       id="g4428" />
    <g
       transform="matrix(0.32943218,0,0,0.32943218,0.45357213,157.50791)"
       id="g4430" />
    <g
       transform="matrix(0.32943218,0,0,0.32943218,0.45357213,157.50791)"
       id="g4432" />
    <g
       transform="matrix(0.32943218,0,0,0.32943218,0.45357213,157.50791)"
       id="g4434" />
    <g
       transform="matrix(0.32943218,0,0,0.32943218,0.45357213,157.50791)"
       id="g4436" />
    <g
       transform="matrix(0.32943218,0,0,0.32943218,0.45357213,157.50791)"
       id="g4438" />
    <g
       transform="matrix(0.32943218,0,0,0.32943218,0.45357213,157.50791)"
       id="g4440" />
    <g
       transform="matrix(0.32943218,0,0,0.32943218,0.45357213,157.50791)"
       id="g4442" />
    <g
       transform="matrix(0.32943218,0,0,0.32943218,0.45357213,157.50791)"
       id="g4444" />
    <g
       transform="matrix(0.32943218,0,0,0.32943218,0.45357213,157.50791)"
       id="g4446" />
    <g
       transform="matrix(0.32943218,0,0,0.32943218,0.45357213,157.50791)"
       id="g4448" />
    <g
       transform="matrix(0.32943218,0,0,0.32943218,0.45357213,157.50791)"
       id="g4450" />
    <g
       transform="matrix(0.32943218,0,0,0.32943218,0.45357213,157.50791)"
       id="g4452" />
    <g
       transform="matrix(0.32943218,0,0,0.32943218,0.45357213,157.50791)"
       id="g4454" />
    <g
       transform="matrix(1.6444658,0,0,1.6444658,11.505308,164.88187)"
       id="g5072">
      <g
         id="keyboard-arrow-left">
        <polygon
           points="211.65,306 247.35,270.3 130.05,153 247.35,35.7 211.65,0 58.65,153 "
           id="polygon5069" />
      </g>
    </g>
    <g
       transform="matrix(0.43998405,0,0,0.43998405,2.1481653,162.02473)"
       id="g5074" />
    <g
       transform="matrix(0.43998405,0,0,0.43998405,2.1481653,162.02473)"
       id="g5076" />
    <g
       transform="matrix(0.43998405,0,0,0.43998405,2.1481653,162.02473)"
       id="g5078" />
    <g
       transform="matrix(0.43998405,0,0,0.43998405,2.1481653,162.02473)"
       id="g5080" />
    <g
       transform="matrix(0.43998405,0,0,0.43998405,2.1481653,162.02473)"
       id="g5082" />
    <g
       transform="matrix(0.43998405,0,0,0.43998405,2.1481653,162.02473)"
       id="g5084" />
    <g
       transform="matrix(0.43998405,0,0,0.43998405,2.1481653,162.02473)"
       id="g5086" />
    <g
       transform="matrix(0.43998405,0,0,0.43998405,2.1481653,162.02473)"
       id="g5088" />
    <g
       transform="matrix(0.43998405,0,0,0.43998405,2.1481653,162.02473)"
       id="g5090" />
    <g
       transform="matrix(0.43998405,0,0,0.43998405,2.1481653,162.02473)"
       id="g5092" />
    <g
       transform="matrix(0.43998405,0,0,0.43998405,2.1481653,162.02473)"
       id="g5094" />
    <g
       transform="matrix(0.43998405,0,0,0.43998405,2.1481653,162.02473)"
       id="g5096" />
    <g
       transform="matrix(0.43998405,0,0,0.43998405,2.1481653,162.02473)"
       id="g5098" />
    <g
       transform="matrix(0.43998405,0,0,0.43998405,2.1481653,162.02473)"
       id="g5100" />
    <g
       transform="matrix(0.43998405,0,0,0.43998405,2.1481653,162.02473)"
       id="g5102" />
  </g>
</svg>
